<svg width="19" height="19" viewBox="0 0 19 19" fill="none" xmlns="http://www.w3.org/2000/svg">
<path d="M14.3608 17.1158C13.6642 17.3216 12.8408 17.4166 11.875 17.4166H7.12499C6.15916 17.4166 5.33583 17.3216 4.63916 17.1158C4.81333 15.0574 6.92708 13.4345 9.49999 13.4345C12.0729 13.4345 14.1867 15.0574 14.3608 17.1158Z" stroke="#549CFA" stroke-width="1.5" stroke-linecap="round" stroke-linejoin="round"/>
<path d="M11.8747 1.58328H7.12467C3.16634 1.58328 1.58301 3.16662 1.58301 7.12495V11.8749C1.58301 14.8674 2.48551 16.5062 4.63884 17.1158C4.81301 15.0574 6.92676 13.4345 9.49967 13.4345C12.0726 13.4345 14.1863 15.0574 14.3605 17.1158C16.5138 16.5062 17.4163 14.8674 17.4163 11.8749V7.12495C17.4163 3.16662 15.833 1.58328 11.8747 1.58328ZM9.49967 11.2179C7.93217 11.2179 6.66551 9.9433 6.66551 8.3758C6.66551 6.8083 7.93217 5.54162 9.49967 5.54162C11.0672 5.54162 12.3338 6.8083 12.3338 8.3758C12.3338 9.9433 11.0672 11.2179 9.49967 11.2179Z" stroke="#549CFA" stroke-width="1.5" stroke-linecap="round" stroke-linejoin="round"/>
<path d="M12.3344 8.3759C12.3344 9.9434 11.0677 11.218 9.50018 11.218C7.93268 11.218 6.66602 9.9434 6.66602 8.3759C6.66602 6.8084 7.93268 5.54172 9.50018 5.54172C11.0677 5.54172 12.3344 6.8084 12.3344 8.3759Z" stroke="#549CFA" stroke-width="1.5" stroke-linecap="round" stroke-linejoin="round"/>
</svg>
