<svg width="20" height="20" viewBox="0 0 20 20" fill="none" xmlns="http://www.w3.org/2000/svg">
<path d="M8.37526 2.1083L3.35859 5.3833C1.75026 6.4333 1.75026 8.7833 3.35859 9.8333L8.37526 13.1083C9.27526 13.7 10.7586 13.7 11.6586 13.1083L16.6503 9.8333C18.2503 8.7833 18.2503 6.44164 16.6503 5.39164L11.6586 2.11664C10.7586 1.51664 9.27526 1.51664 8.37526 2.1083Z" stroke="#549CFA" stroke-width="1.5" stroke-linecap="round" stroke-linejoin="round"/>
<path d="M4.69193 10.9L4.68359 14.8083C4.68359 15.8667 5.50026 17 6.50026 17.3333L9.15859 18.2167C9.61693 18.3667 10.3753 18.3667 10.8419 18.2167L13.5003 17.3333C14.5003 17 15.3169 15.8667 15.3169 14.8083V10.9417" stroke="#549CFA" stroke-width="1.5" stroke-linecap="round" stroke-linejoin="round"/>
<path d="M17.833 12.5V7.5" stroke="#549CFA" stroke-width="1.5" stroke-linecap="round" stroke-linejoin="round"/>
</svg>
