<svg width="17" height="19" viewBox="0 0 17 19" fill="none" xmlns="http://www.w3.org/2000/svg">
<path d="M5.60196 19C7.09951 19 8.51387 18.4113 9.59543 17.346L13.0897 13.8137C13.3393 13.5614 13.3393 13.1129 13.0897 12.8606C12.8401 12.6083 12.3964 12.6083 12.1468 12.8606L8.65253 16.3648C7.84829 17.1778 6.76672 17.6263 5.60196 17.6263C4.43719 17.6263 3.38336 17.1778 2.55139 16.3648C1.71941 15.5518 1.30343 14.4585 1.30343 13.2811C1.30343 12.1037 1.74715 11.0384 2.55139 10.1973L10.4551 2.20767C11.0375 1.61896 11.7863 1.31059 12.6183 1.31059C13.4225 1.31059 14.199 1.61896 14.7814 2.20767C15.3638 2.79638 15.6688 3.5533 15.6688 4.39432C15.6688 5.2073 15.3638 5.99225 14.7814 6.58097L6.84992 14.5987C6.15661 15.2995 4.99184 15.2995 4.29853 14.5987C3.96574 14.2623 3.77162 13.7857 3.77162 13.3091C3.77162 12.8325 3.96574 12.356 4.29853 12.0196L7.82055 8.45924C8.07015 8.20693 8.07015 7.75839 7.82055 7.50609C7.57096 7.25378 7.12724 7.25378 6.87765 7.50609L3.38336 11.0664C2.80098 11.6551 2.46819 12.4681 2.46819 13.3091C2.46819 14.1501 2.80098 14.9631 3.38336 15.5518C4.60359 16.7853 6.60033 16.7853 7.82055 15.5518L15.7243 7.56215C16.5563 6.72114 17 5.62781 17 4.42235C17 3.21689 16.5563 2.12357 15.7243 1.28255C14.0326 -0.427518 11.2316 -0.427518 9.53997 1.28255L1.63622 9.27222C0.582382 10.3375 0 11.7672 0 13.3091C0 14.8229 0.582382 16.2527 1.63622 17.346C2.69005 18.4113 4.1044 19 5.60196 19Z" fill="#292D32"/>
</svg>
