<svg width="17" height="17" viewBox="0 0 17 17" fill="none" xmlns="http://www.w3.org/2000/svg">
<path d="M5.6665 8.64166H10.6248" stroke="#549CFA" stroke-width="1.5" stroke-miterlimit="10" stroke-linecap="round" stroke-linejoin="round"/>
<path d="M5.6665 11.475H8.769" stroke="#549CFA" stroke-width="1.5" stroke-miterlimit="10" stroke-linecap="round" stroke-linejoin="round"/>
<path d="M7.08317 4.25002H9.9165C11.3332 4.25002 11.3332 3.54169 11.3332 2.83335C11.3332 1.41669 10.6248 1.41669 9.9165 1.41669H7.08317C6.37484 1.41669 5.6665 1.41669 5.6665 2.83335C5.6665 4.25002 6.37484 4.25002 7.08317 4.25002Z" stroke="#549CFA" stroke-width="1.5" stroke-miterlimit="10" stroke-linecap="round" stroke-linejoin="round"/>
<path d="M11.3333 2.84753C13.6921 2.97503 14.875 3.84628 14.875 7.08337V11.3334C14.875 14.1667 14.1667 15.5834 10.625 15.5834H6.375C2.83333 15.5834 2.125 14.1667 2.125 11.3334V7.08337C2.125 3.85337 3.30792 2.97503 5.66667 2.84753" stroke="#549CFA" stroke-width="1.5" stroke-miterlimit="10" stroke-linecap="round" stroke-linejoin="round"/>
</svg>
