<svg width="17" height="17" viewBox="0 0 17 17" fill="none" xmlns="http://www.w3.org/2000/svg">
<path d="M6.14258 10.1503C6.14258 11.064 6.84383 11.8007 7.71508 11.8007H9.49299C10.2509 11.8007 10.8672 11.1561 10.8672 10.3628C10.8672 9.49862 10.4917 9.19404 9.93216 8.9957L7.07758 8.00404C6.51799 7.8057 6.14258 7.50112 6.14258 6.63695C6.14258 5.84362 6.75883 5.19904 7.51674 5.19904H9.29466C10.1659 5.19904 10.8672 5.9357 10.8672 6.84945" stroke="#549CFA" stroke-width="1.5" stroke-linecap="round" stroke-linejoin="round"/>
<path d="M8.5 4.25V12.75" stroke="#549CFA" stroke-width="1.5" stroke-linecap="round" stroke-linejoin="round"/>
<path d="M10.6248 15.5834H6.37484C2.83317 15.5834 1.4165 14.1667 1.4165 10.625V6.37502C1.4165 2.83335 2.83317 1.41669 6.37484 1.41669H10.6248C14.1665 1.41669 15.5832 2.83335 15.5832 6.37502V10.625C15.5832 14.1667 14.1665 15.5834 10.6248 15.5834Z" stroke="#549CFA" stroke-width="1.5" stroke-linecap="round" stroke-linejoin="round"/>
</svg>
