<svg width="17" height="17" viewBox="0 0 17 17" fill="none" xmlns="http://www.w3.org/2000/svg">
<path d="M6.37484 15.5833H10.6248C14.1665 15.5833 15.5832 14.1666 15.5832 10.625V6.37496C15.5832 2.83329 14.1665 1.41663 10.6248 1.41663H6.37484C2.83317 1.41663 1.4165 2.83329 1.4165 6.37496V10.625C1.4165 14.1666 2.83317 15.5833 6.37484 15.5833Z" stroke="#549CFA" stroke-width="1.5" stroke-linecap="round" stroke-linejoin="round"/>
<path d="M6.37516 7.08333C7.15757 7.08333 7.79183 6.44907 7.79183 5.66667C7.79183 4.88426 7.15757 4.25 6.37516 4.25C5.59276 4.25 4.9585 4.88426 4.9585 5.66667C4.9585 6.44907 5.59276 7.08333 6.37516 7.08333Z" stroke="#549CFA" stroke-width="1.5" stroke-linecap="round" stroke-linejoin="round"/>
<path d="M1.89111 13.423L5.3832 11.0784C5.94278 10.703 6.75028 10.7455 7.2532 11.1776L7.48695 11.383C8.03945 11.8576 8.93195 11.8576 9.48445 11.383L12.4311 8.85423C12.9836 8.37965 13.8761 8.37965 14.4286 8.85423L15.5832 9.84589" stroke="#549CFA" stroke-width="1.5" stroke-linecap="round" stroke-linejoin="round"/>
</svg>
