<?xml version="1.0" encoding="UTF-8"?><svg id="a" xmlns="http://www.w3.org/2000/svg" viewBox="0 0 16.5 16.5"><path d="M13.1,11.87l.29,2.37c.07,.62-.59,1.06-1.12,.73l-3.14-1.87c-.35,0-.68-.02-1.01-.07,.56-.65,.89-1.48,.89-2.37,0-2.13-1.85-3.85-4.13-3.85-.87,0-1.67,.25-2.34,.68-.02-.19-.03-.38-.03-.57C2.5,3.52,5.47,.75,9.13,.75s6.62,2.77,6.62,6.18c0,2.03-1.04,3.82-2.65,4.94Z" fill="none" stroke="#8b939c" stroke-linecap="round" stroke-linejoin="round" stroke-width="1.5"/><path d="M9,10.67c0,.89-.33,1.72-.88,2.37-.74,.9-1.92,1.48-3.24,1.48l-1.96,1.16c-.33,.2-.75-.08-.7-.46l.19-1.48c-1.01-.7-1.65-1.82-1.65-3.08s.7-2.48,1.79-3.17c.67-.43,1.47-.68,2.34-.68,2.28,0,4.12,1.72,4.12,3.85Z" fill="none" stroke="#8b939c" stroke-linecap="round" stroke-linejoin="round" stroke-width="1.5"/></svg>