<svg width="20" height="20" viewBox="0 0 20 20" fill="none" xmlns="http://www.w3.org/2000/svg">
<path d="M15.1166 18.0167C14.3833 18.2333 13.5166 18.3333 12.5 18.3333H7.49997C6.4833 18.3333 5.61663 18.2333 4.8833 18.0167C5.06663 15.85 7.29163 14.1416 9.99997 14.1416C12.7083 14.1416 14.9333 15.85 15.1166 18.0167Z" stroke="#8B939C" stroke-width="1.5" stroke-linecap="round" stroke-linejoin="round"/>
<path d="M12.5 1.66666H7.50002C3.33335 1.66666 1.66669 3.33332 1.66669 7.49999V12.5C1.66669 15.65 2.61669 17.375 4.88335 18.0167C5.06669 15.85 7.29169 14.1416 10 14.1416C12.7084 14.1416 14.9334 15.85 15.1167 18.0167C17.3834 17.375 18.3334 15.65 18.3334 12.5V7.49999C18.3334 3.33332 16.6667 1.66666 12.5 1.66666ZM10 11.8083C8.35002 11.8083 7.01669 10.4667 7.01669 8.81667C7.01669 7.16667 8.35002 5.83332 10 5.83332C11.65 5.83332 12.9834 7.16667 12.9834 8.81667C12.9834 10.4667 11.65 11.8083 10 11.8083Z" stroke="#8B939C" stroke-width="1.5" stroke-linecap="round" stroke-linejoin="round"/>
<path d="M12.9833 8.81669C12.9833 10.4667 11.65 11.8083 10 11.8083C8.35 11.8083 7.01666 10.4667 7.01666 8.81669C7.01666 7.16669 8.35 5.83334 10 5.83334C11.65 5.83334 12.9833 7.16669 12.9833 8.81669Z" stroke="#8B939C" stroke-width="1.5" stroke-linecap="round" stroke-linejoin="round"/>
</svg>
